<mxfile host="Electron" agent="Mozilla/5.0 (Macintosh; Intel Mac OS X 10_15_7) AppleWebKit/537.36 (KHTML, like Gecko) draw.io/26.1.1 Chrome/132.0.6834.210 Electron/34.3.3 Safari/537.36" version="26.1.1">
  <diagram id="igkuduxz-Ylw48vKWzHE" name="Page-2">
    <mxGraphModel dx="1080" dy="782" grid="1" gridSize="10" guides="1" tooltips="1" connect="1" arrows="1" fold="1" page="1" pageScale="1" pageWidth="850" pageHeight="1100" math="0" shadow="0">
      <root>
        <mxCell id="0" />
        <mxCell id="1" parent="0" />
        <mxCell id="FeITC-nFaK6s46LBLDIu-75" value="Start" style="rounded=1;whiteSpace=wrap;arcSize=50;strokeWidth=2;" vertex="1" parent="1">
          <mxGeometry x="738" y="20" width="60" height="39" as="geometry" />
        </mxCell>
        <mxCell id="FeITC-nFaK6s46LBLDIu-76" value="Launch Application" style="whiteSpace=wrap;strokeWidth=2;" vertex="1" parent="1">
          <mxGeometry x="670" y="109" width="196" height="54" as="geometry" />
        </mxCell>
        <mxCell id="FeITC-nFaK6s46LBLDIu-77" value="Upload CSV File" style="whiteSpace=wrap;strokeWidth=2;" vertex="1" parent="1">
          <mxGeometry x="681" y="213" width="173" height="54" as="geometry" />
        </mxCell>
        <mxCell id="FeITC-nFaK6s46LBLDIu-78" value="Validate CSV File" style="rhombus;strokeWidth=2;whiteSpace=wrap;" vertex="1" parent="1">
          <mxGeometry x="680" y="317" width="175" height="175" as="geometry" />
        </mxCell>
        <mxCell id="FeITC-nFaK6s46LBLDIu-79" value="Show Error Message" style="rounded=1;whiteSpace=wrap;arcSize=50;strokeWidth=2;" vertex="1" parent="1">
          <mxGeometry x="305" y="584" width="165" height="39" as="geometry" />
        </mxCell>
        <mxCell id="FeITC-nFaK6s46LBLDIu-80" value="End" style="rounded=1;whiteSpace=wrap;arcSize=50;strokeWidth=2;" vertex="1" parent="1">
          <mxGeometry x="362" y="680" width="51" height="39" as="geometry" />
        </mxCell>
        <mxCell id="FeITC-nFaK6s46LBLDIu-81" value="Display DNA Sequences in Table" style="whiteSpace=wrap;strokeWidth=2;" vertex="1" parent="1">
          <mxGeometry x="769" y="564" width="260" height="78" as="geometry" />
        </mxCell>
        <mxCell id="FeITC-nFaK6s46LBLDIu-82" value="Perform DNA Operations" style="whiteSpace=wrap;strokeWidth=2;" vertex="1" parent="1">
          <mxGeometry x="498" y="692" width="233" height="54" as="geometry" />
        </mxCell>
        <mxCell id="FeITC-nFaK6s46LBLDIu-83" value="Generate Reverse Sequences" style="whiteSpace=wrap;strokeWidth=2;" vertex="1" parent="1">
          <mxGeometry x="20" y="838" width="260" height="78" as="geometry" />
        </mxCell>
        <mxCell id="FeITC-nFaK6s46LBLDIu-84" value="Generate Complement Sequences" style="whiteSpace=wrap;strokeWidth=2;" vertex="1" parent="1">
          <mxGeometry x="330" y="838" width="260" height="78" as="geometry" />
        </mxCell>
        <mxCell id="FeITC-nFaK6s46LBLDIu-85" value="Generate Reverse-Complement Sequences" style="whiteSpace=wrap;strokeWidth=2;" vertex="1" parent="1">
          <mxGeometry x="640" y="838" width="260" height="78" as="geometry" />
        </mxCell>
        <mxCell id="FeITC-nFaK6s46LBLDIu-86" value="Save Processed Data as CSV" style="whiteSpace=wrap;strokeWidth=2;" vertex="1" parent="1">
          <mxGeometry x="950" y="850" width="257" height="54" as="geometry" />
        </mxCell>
        <mxCell id="FeITC-nFaK6s46LBLDIu-87" value="Export CSV File" style="whiteSpace=wrap;strokeWidth=2;" vertex="1" parent="1">
          <mxGeometry x="994" y="1031" width="169" height="54" as="geometry" />
        </mxCell>
        <mxCell id="FeITC-nFaK6s46LBLDIu-88" value="Select DNA Sequence" style="whiteSpace=wrap;strokeWidth=2;" vertex="1" parent="1">
          <mxGeometry x="1232" y="692" width="211" height="54" as="geometry" />
        </mxCell>
        <mxCell id="FeITC-nFaK6s46LBLDIu-89" value="User clicks row" style="rhombus;strokeWidth=2;whiteSpace=wrap;" vertex="1" parent="1">
          <mxGeometry x="1257" y="796" width="162" height="162" as="geometry" />
        </mxCell>
        <mxCell id="FeITC-nFaK6s46LBLDIu-90" value="Calculate Statistics" style="whiteSpace=wrap;strokeWidth=2;" vertex="1" parent="1">
          <mxGeometry x="1239" y="1031" width="198" height="54" as="geometry" />
        </mxCell>
        <mxCell id="FeITC-nFaK6s46LBLDIu-91" value="Generate Bar Chart" style="whiteSpace=wrap;strokeWidth=2;" vertex="1" parent="1">
          <mxGeometry x="1238" y="1135" width="199" height="54" as="geometry" />
        </mxCell>
        <mxCell id="FeITC-nFaK6s46LBLDIu-92" value="Display Statistics and Chart in Sidebar" style="whiteSpace=wrap;strokeWidth=2;" vertex="1" parent="1">
          <mxGeometry x="1208" y="1239" width="260" height="78" as="geometry" />
        </mxCell>
        <mxCell id="FeITC-nFaK6s46LBLDIu-93" value="End" style="rounded=1;whiteSpace=wrap;arcSize=50;strokeWidth=2;" vertex="1" parent="1">
          <mxGeometry x="1312" y="1367" width="51" height="39" as="geometry" />
        </mxCell>
        <mxCell id="FeITC-nFaK6s46LBLDIu-94" value="" style="curved=1;startArrow=none;endArrow=block;exitX=0.49;exitY=1;entryX=0.5;entryY=0;rounded=0;" edge="1" parent="1" source="FeITC-nFaK6s46LBLDIu-75" target="FeITC-nFaK6s46LBLDIu-76">
          <mxGeometry relative="1" as="geometry">
            <Array as="points" />
          </mxGeometry>
        </mxCell>
        <mxCell id="FeITC-nFaK6s46LBLDIu-95" value="" style="curved=1;startArrow=none;endArrow=block;exitX=0.5;exitY=1;entryX=0.5;entryY=0;rounded=0;" edge="1" parent="1" source="FeITC-nFaK6s46LBLDIu-76" target="FeITC-nFaK6s46LBLDIu-77">
          <mxGeometry relative="1" as="geometry">
            <Array as="points" />
          </mxGeometry>
        </mxCell>
        <mxCell id="FeITC-nFaK6s46LBLDIu-96" value="" style="curved=1;startArrow=none;endArrow=block;exitX=0.5;exitY=1;entryX=0.5;entryY=0;rounded=0;" edge="1" parent="1" source="FeITC-nFaK6s46LBLDIu-77" target="FeITC-nFaK6s46LBLDIu-78">
          <mxGeometry relative="1" as="geometry">
            <Array as="points" />
          </mxGeometry>
        </mxCell>
        <mxCell id="FeITC-nFaK6s46LBLDIu-97" value="Valid" style="curved=1;startArrow=none;endArrow=block;exitX=1;exitY=0.97;entryX=0.5;entryY=0.01;rounded=0;" edge="1" parent="1" source="FeITC-nFaK6s46LBLDIu-78" target="FeITC-nFaK6s46LBLDIu-81">
          <mxGeometry relative="1" as="geometry">
            <Array as="points">
              <mxPoint x="899" y="528" />
            </Array>
          </mxGeometry>
        </mxCell>
        <mxCell id="FeITC-nFaK6s46LBLDIu-98" value="Invalid" style="curved=1;startArrow=none;endArrow=block;exitX=0;exitY=0.66;entryX=0.5;entryY=0;rounded=0;" edge="1" parent="1" source="FeITC-nFaK6s46LBLDIu-78" target="FeITC-nFaK6s46LBLDIu-79">
          <mxGeometry relative="1" as="geometry">
            <Array as="points">
              <mxPoint x="388" y="528" />
            </Array>
          </mxGeometry>
        </mxCell>
        <mxCell id="FeITC-nFaK6s46LBLDIu-99" value="" style="curved=1;startArrow=none;endArrow=block;exitX=0.5;exitY=1;entryX=0.5;entryY=0;rounded=0;" edge="1" parent="1" source="FeITC-nFaK6s46LBLDIu-79" target="FeITC-nFaK6s46LBLDIu-80">
          <mxGeometry relative="1" as="geometry">
            <Array as="points" />
          </mxGeometry>
        </mxCell>
        <mxCell id="FeITC-nFaK6s46LBLDIu-100" value="" style="curved=1;startArrow=none;endArrow=block;exitX=0;exitY=0.88;entryX=0.5;entryY=0.01;rounded=0;" edge="1" parent="1" source="FeITC-nFaK6s46LBLDIu-81" target="FeITC-nFaK6s46LBLDIu-82">
          <mxGeometry relative="1" as="geometry">
            <Array as="points">
              <mxPoint x="615" y="667" />
            </Array>
          </mxGeometry>
        </mxCell>
        <mxCell id="FeITC-nFaK6s46LBLDIu-101" value="" style="curved=1;startArrow=none;endArrow=block;exitX=0;exitY=0.75;entryX=0.5;entryY=0;rounded=0;" edge="1" parent="1" source="FeITC-nFaK6s46LBLDIu-82" target="FeITC-nFaK6s46LBLDIu-83">
          <mxGeometry relative="1" as="geometry">
            <Array as="points">
              <mxPoint x="150" y="771" />
            </Array>
          </mxGeometry>
        </mxCell>
        <mxCell id="FeITC-nFaK6s46LBLDIu-102" value="" style="curved=1;startArrow=none;endArrow=block;exitX=0.16;exitY=1.01;entryX=0.5;entryY=0;rounded=0;" edge="1" parent="1" source="FeITC-nFaK6s46LBLDIu-82" target="FeITC-nFaK6s46LBLDIu-84">
          <mxGeometry relative="1" as="geometry">
            <Array as="points">
              <mxPoint x="460" y="771" />
            </Array>
          </mxGeometry>
        </mxCell>
        <mxCell id="FeITC-nFaK6s46LBLDIu-103" value="" style="curved=1;startArrow=none;endArrow=block;exitX=0.85;exitY=1.01;entryX=0.5;entryY=0;rounded=0;" edge="1" parent="1" source="FeITC-nFaK6s46LBLDIu-82" target="FeITC-nFaK6s46LBLDIu-85">
          <mxGeometry relative="1" as="geometry">
            <Array as="points">
              <mxPoint x="770" y="771" />
            </Array>
          </mxGeometry>
        </mxCell>
        <mxCell id="FeITC-nFaK6s46LBLDIu-104" value="" style="curved=1;startArrow=none;endArrow=block;exitX=1;exitY=0.75;entryX=0.5;entryY=0.01;rounded=0;" edge="1" parent="1" source="FeITC-nFaK6s46LBLDIu-82" target="FeITC-nFaK6s46LBLDIu-86">
          <mxGeometry relative="1" as="geometry">
            <Array as="points">
              <mxPoint x="1078" y="771" />
            </Array>
          </mxGeometry>
        </mxCell>
        <mxCell id="FeITC-nFaK6s46LBLDIu-105" value="" style="curved=1;startArrow=none;endArrow=block;exitX=0.5;exitY=1.01;entryX=0.5;entryY=0;rounded=0;" edge="1" parent="1" source="FeITC-nFaK6s46LBLDIu-86" target="FeITC-nFaK6s46LBLDIu-87">
          <mxGeometry relative="1" as="geometry">
            <Array as="points" />
          </mxGeometry>
        </mxCell>
        <mxCell id="FeITC-nFaK6s46LBLDIu-106" value="" style="curved=1;startArrow=none;endArrow=block;exitX=1;exitY=0.75;entryX=0.5;entryY=0.01;rounded=0;" edge="1" parent="1" source="FeITC-nFaK6s46LBLDIu-81" target="FeITC-nFaK6s46LBLDIu-88">
          <mxGeometry relative="1" as="geometry">
            <Array as="points">
              <mxPoint x="1338" y="667" />
            </Array>
          </mxGeometry>
        </mxCell>
        <mxCell id="FeITC-nFaK6s46LBLDIu-107" value="" style="curved=1;startArrow=none;endArrow=block;exitX=0.5;exitY=1.01;entryX=0.5;entryY=0;rounded=0;" edge="1" parent="1" source="FeITC-nFaK6s46LBLDIu-88" target="FeITC-nFaK6s46LBLDIu-89">
          <mxGeometry relative="1" as="geometry">
            <Array as="points" />
          </mxGeometry>
        </mxCell>
        <mxCell id="FeITC-nFaK6s46LBLDIu-108" value="Row Selected" style="curved=1;startArrow=none;endArrow=block;exitX=0.5;exitY=1;entryX=0.5;entryY=0;rounded=0;" edge="1" parent="1" source="FeITC-nFaK6s46LBLDIu-89" target="FeITC-nFaK6s46LBLDIu-90">
          <mxGeometry relative="1" as="geometry">
            <Array as="points" />
          </mxGeometry>
        </mxCell>
        <mxCell id="FeITC-nFaK6s46LBLDIu-109" value="" style="curved=1;startArrow=none;endArrow=block;exitX=0.5;exitY=1;entryX=0.5;entryY=0;rounded=0;" edge="1" parent="1" source="FeITC-nFaK6s46LBLDIu-90" target="FeITC-nFaK6s46LBLDIu-91">
          <mxGeometry relative="1" as="geometry">
            <Array as="points" />
          </mxGeometry>
        </mxCell>
        <mxCell id="FeITC-nFaK6s46LBLDIu-110" value="" style="curved=1;startArrow=none;endArrow=block;exitX=0.5;exitY=1;entryX=0.5;entryY=0;rounded=0;" edge="1" parent="1" source="FeITC-nFaK6s46LBLDIu-91" target="FeITC-nFaK6s46LBLDIu-92">
          <mxGeometry relative="1" as="geometry">
            <Array as="points" />
          </mxGeometry>
        </mxCell>
        <mxCell id="FeITC-nFaK6s46LBLDIu-111" value="" style="curved=1;startArrow=none;endArrow=block;exitX=0.5;exitY=1;entryX=0.5;entryY=-0.01;rounded=0;" edge="1" parent="1" source="FeITC-nFaK6s46LBLDIu-92" target="FeITC-nFaK6s46LBLDIu-93">
          <mxGeometry relative="1" as="geometry">
            <Array as="points" />
          </mxGeometry>
        </mxCell>
      </root>
    </mxGraphModel>
  </diagram>
</mxfile>
